<?xml version="1.0" encoding="UTF-8" standalone="no"?>
<svg
   xmlns:dc="http://purl.org/dc/elements/1.1/"
   xmlns:cc="http://creativecommons.org/ns#"
   xmlns:rdf="http://www.w3.org/1999/02/22-rdf-syntax-ns#"
   xmlns:svg="http://www.w3.org/2000/svg"
   xmlns="http://www.w3.org/2000/svg"
   xmlns:xlink="http://www.w3.org/1999/xlink"
   xmlns:sodipodi="http://sodipodi.sourceforge.net/DTD/sodipodi-0.dtd"
   xmlns:inkscape="http://www.inkscape.org/namespaces/inkscape"
   version="1.1"
   id="Layer_1"
   x="0px"
   y="0px"
   viewBox="0 0 22 19"
   style="enable-background:new 0 0 22 19;"
   xml:space="preserve"
   sodipodi:docname="icon_warning_alt.svg"
   inkscape:version="1.0.1 (3bc2e813f5, 2020-09-07)"><metadata
   id="metadata27"><rdf:RDF><cc:Work
       rdf:about=""><dc:format>image/svg+xml</dc:format><dc:type
         rdf:resource="http://purl.org/dc/dcmitype/StillImage" /><dc:title></dc:title></cc:Work></rdf:RDF></metadata><defs
   id="defs25" /><sodipodi:namedview
   pagecolor="#ffffff"
   bordercolor="#666666"
   borderopacity="1"
   objecttolerance="10"
   gridtolerance="10"
   guidetolerance="10"
   inkscape:pageopacity="0"
   inkscape:pageshadow="2"
   inkscape:window-width="1600"
   inkscape:window-height="878"
   id="namedview23"
   showgrid="false"
   inkscape:zoom="37.473684"
   inkscape:cx="6.1966292"
   inkscape:cy="9.5"
   inkscape:window-x="0"
   inkscape:window-y="22"
   inkscape:window-maximized="1"
   inkscape:current-layer="Layer_1" />
<style
   type="text/css"
   id="style2">
	.st0{clip-path:url(#SVGID_2_);}
	.st1{clip-path:url(#SVGID_4_);fill:#F0BE4A;}
</style>
<g
   id="g20"
   style="fill:#da6b2f;fill-opacity:1">
	<defs
   id="defs5">
		<path
   id="SVGID_1_"
   d="M11,16.6c-0.7,0-1.3-0.6-1.3-1.3c0-0.7,0.6-1.3,1.3-1.3c0.7,0,1.3,0.6,1.3,1.3C12.3,16,11.7,16.6,11,16.6z     M10.1,5.2c0-0.5,0.4-0.9,0.9-0.9c0.5,0,0.9,0.4,0.9,0.9v6.5c0,0.5-0.4,0.9-0.9,0.9c-0.5,0-0.9-0.4-0.9-0.9V5.2z M21.9,17.5    l-10-17c-0.4-0.7-1.3-0.7-1.7,0l-10,17C-0.3,18.2,0.2,19,1,19h20C21.8,19,22.3,18.2,21.9,17.5L21.9,17.5z" />
	</defs>
	<clipPath
   id="SVGID_2_">
		<use
   xlink:href="#SVGID_1_"
   style="overflow:visible;"
   id="use7" />
	</clipPath>
	<g
   class="st0"
   clip-path="url(#SVGID_2_)"
   id="g18"
   style="fill:#da6b2f;fill-opacity:1">
		<defs
   id="defs11">
			<rect
   id="SVGID_3_"
   x="-1346"
   y="-149"
   width="1440"
   height="786" />
		</defs>
		<clipPath
   id="SVGID_4_">
			<use
   xlink:href="#SVGID_3_"
   style="overflow:visible;"
   id="use13" />
		</clipPath>
		<rect
   x="-5"
   y="-5"
   class="st1"
   width="32"
   height="29"
   clip-path="url(#SVGID_4_)"
   id="rect16"
   style="fill:#da6b2f;fill-opacity:1" />
	</g>
</g>
</svg>
