<?xml version="1.0" encoding="UTF-8" standalone="no"?>
<svg
   xmlns:dc="http://purl.org/dc/elements/1.1/"
   xmlns:cc="http://creativecommons.org/ns#"
   xmlns:rdf="http://www.w3.org/1999/02/22-rdf-syntax-ns#"
   xmlns:svg="http://www.w3.org/2000/svg"
   xmlns="http://www.w3.org/2000/svg"
   xmlns:sodipodi="http://sodipodi.sourceforge.net/DTD/sodipodi-0.dtd"
   xmlns:inkscape="http://www.inkscape.org/namespaces/inkscape"
   width="19px"
   height="21px"
   viewBox="0 0 19 21"
   version="1.1"
   id="svg20"
   sodipodi:docname="lift_white.svg"
   inkscape:version="1.0.1 (3bc2e813f5, 2020-09-07)">
  <metadata
     id="metadata24">
    <rdf:RDF>
      <cc:Work
         rdf:about="">
        <dc:format>image/svg+xml</dc:format>
        <dc:type
           rdf:resource="http://purl.org/dc/dcmitype/StillImage" />
      </cc:Work>
    </rdf:RDF>
  </metadata>
  <sodipodi:namedview
     pagecolor="#ffffff"
     bordercolor="#666666"
     borderopacity="1"
     objecttolerance="10"
     gridtolerance="10"
     guidetolerance="10"
     inkscape:pageopacity="0"
     inkscape:pageshadow="2"
     inkscape:window-width="1600"
     inkscape:window-height="878"
     id="namedview22"
     showgrid="false"
     inkscape:zoom="33.904762"
     inkscape:cx="9.5"
     inkscape:cy="10.5"
     inkscape:window-x="0"
     inkscape:window-y="22"
     inkscape:window-maximized="1"
     inkscape:current-layer="svg20" />
  <title
     id="title2">Group 6</title>
  <defs
     id="defs7">
    <filter
       id="filter-1">
      <feColorMatrix
         in="SourceGraphic"
         type="matrix"
         values="0 0 0 0 0.058824 0 0 0 0 0.356863 0 0 0 0 0.411765 0 0 0 1.000000 0"
         id="feColorMatrix4" />
    </filter>
  </defs>
  <path
     d="m 17.196053,12.310059 -0.990555,0.963808 -0.964551,-0.96455 c -0.182061,-0.208821 -0.520921,-0.208821 -0.729723,0 -0.208821,0.208822 -0.208821,0.520922 0,0.729724 l 1.355426,1.355426 c 0.208822,0.208822 0.520922,0.208822 0.729724,0 L 17.9518,13.039041 c 0.208822,-0.208821 0.208822,-0.520921 0,-0.729724 -0.234826,-0.208079 -0.572931,-0.208079 -0.755747,7.44e-4 z"
     id="Fill-1"
     stroke="#000000"
     stroke-width="0.3"
     fill="#000000"
     style="fill-rule:evenodd;fill:#ffffff;fill-opacity:1;stroke:#ffffff;stroke-opacity:1" />
  <path
     d="m 6.9024206,6.1861947 c 0.9905552,0 1.7723082,-0.8077581 1.7723082,-1.7723081 0,-0.96455 -0.8077581,-1.7723082 -1.7723082,-1.7723082 -0.9905552,0 -1.7723081,0.8077582 -1.7723081,1.7723082 0,0.96455 0.7817529,1.7723081 1.7723081,1.7723081 z m 0,-2.5019746 c 0.3908765,0 0.7297236,0.3388471 0.7297236,0.7297236 0,0.3908764 -0.3388471,0.7297235 -0.7297236,0.7297235 -0.3908764,0 -0.7297236,-0.3388471 -0.7297236,-0.7297235 0,-0.3908765 0.312842,-0.7297236 0.7297236,-0.7297236 z"
     id="Fill-2"
     stroke="#000000"
     stroke-width="0.3"
     fill="#000000"
     style="fill-rule:evenodd;fill:#ffffff;fill-opacity:1;stroke:#ffffff;stroke-opacity:1" />
  <path
     d="m 4.8440747,13.195795 h 0.052018 v 4.664569 c 0,0.286838 0.2348265,0.520922 0.5209213,0.520922 l 2.9709047,7.43e-4 c 0.2868368,0 0.5209213,-0.234826 0.5209213,-0.520921 v -4.66514 h 0.052018 c 0.2868368,0 0.5209213,-0.234826 0.5209213,-0.520921 L 9.482523,9.0523958 c 0,-1.433461 -1.1466052,-2.5799711 -2.5799711,-2.5799711 -1.4333659,0 -2.5799711,1.1466052 -2.5799711,2.5799711 v 3.5958272 c 0,0.312842 0.2348264,0.547669 0.5216632,0.547669 z M 7.8671038,17.33931 H 7.424217 v -1.928415 c 0,-0.286837 -0.2348264,-0.520922 -0.5209213,-0.520922 -0.2868368,0 -0.5209213,0.234827 -0.5209213,0.520922 V 17.33931 H 5.9394876 l -0.00149,-4.143515 H 7.867178 Z M 5.3651292,9.0522798 c 0,-0.8597685 0.7037184,-1.5374817 1.5374817,-1.5374817 0.8597684,0 1.5374817,0.7037184 1.5374817,1.5374817 V 12.127243 H 5.3651292 Z"
     id="Fill-3"
     stroke="#000000"
     stroke-width="0.3"
     fill="#000000"
     style="fill-rule:evenodd;fill:#ffffff;fill-opacity:1;stroke:#ffffff;stroke-opacity:1" />
  <path
     d="M 12.218736,1.1300429 H 1.560423 c -0.2868368,0 -0.5209213,0.2348265 -0.5209213,0.5209214 V 19.371763 c 0,0.286837 0.2348264,0.520921 0.5209213,0.520921 h 10.658313 c 0.286837,0 0.520922,-0.234826 0.520922,-0.520921 V 1.6509643 c 0,-0.2860949 -0.20808,-0.5209214 -0.520922,-0.5209214 z M 11.697815,18.850842 H 2.0812304 V 2.1725324 h 9.6158236 z"
     id="Fill-4"
     stroke="#000000"
     stroke-width="0.3"
     fill="#000000"
     style="fill-rule:evenodd;fill:#ffffff;fill-opacity:1;stroke:#ffffff;stroke-opacity:1" />
  <path
     d="m 15.241575,8.7134707 0.96455,-0.9645501 0.96455,0.9645501 c 0.182061,0.2088213 0.520922,0.2088213 0.729724,0 0.208802,-0.2088213 0.208821,-0.5209213 0,-0.7297236 L 16.544972,6.6283206 c -0.208821,-0.2088213 -0.520921,-0.2088213 -0.729723,0 l -1.355427,1.3554265 c -0.208821,0.2088213 -0.208821,0.5209213 0,0.7297236 0.234085,0.2088213 0.572932,0.2088213 0.781753,0 z"
     id="Fill-5"
     stroke="#000000"
     stroke-width="0.3"
     fill="#000000"
     style="fill-rule:evenodd;fill:#ffffff;fill-opacity:1;stroke:#ffffff;stroke-opacity:1" />
</svg>
