<?xml version="1.0" encoding="utf-8"?>
<!-- Generator: Adobe Illustrator 24.2.1, SVG Export Plug-In . SVG Version: 6.00 Build 0)  -->
<svg version="1.1" id="Layer_1" xmlns="http://www.w3.org/2000/svg" xmlns:xlink="http://www.w3.org/1999/xlink" x="0px" y="0px"
	 viewBox="0 0 100 56" style="enable-background:new 0 0 100 56;" xml:space="preserve">
<style type="text/css">
	.st0{fill:#3EC7FF;}
</style>
<g transform="translate(21.000000, 24.000000)">
	<path id="Path" class="st0" d="M59.4-2.2C63.9,1.7,71,6.5,79,7.9V5.7C70.8,4.1,63.5-1.4,59.4-5.1V-2.2z"/>
	<path id="Path_1_" class="st0" d="M-21,7.9C-13,6.5-5.9,1.7-1.4-2.2v-2.9C-5.5-1.4-12.8,4.2-21,5.7V7.9z"/>
	<path id="Shape" class="st0" d="M57.3-16.7h-2.2v4.3h-2.2l-3.3-10.9l-3.3,10.9h-2.2l0-4.3H42V-8H16v-8.7h-2.2v4.3h-2.2L8.3-23.2
		L5.1-12.3H2.9l0-4.3H0.7v28.3H-21V16h19.6v6.5l-19.6,0v2.2H79v-2.2H59.4V16H79v-4.3l-21.7,0L57.3-16.7z M7.3,7.3H5.1V2.9h2.2V7.3z
		 M7.3-1.4H5.1v-4.3h2.2V-1.4z M11.6,7.3H9.4V2.9h2.2V7.3z M11.6-1.4H9.4v-4.3h2.2V-1.4z M39.9,22.5H18.1v-3.9L29,14.9l10.9,3.6
		V22.5z M18.1,16.3v-2.5h7.4L18.1,16.3z M39.9,16.3l-7.4-2.5h7.4V16.3z M42,11.6H16v-13H42V11.6z M48.6,7.3h-2.2V2.9h2.2V7.3z
		 M48.6-1.4h-2.2v-4.3h2.2V-1.4z M52.9,7.3h-2.2V2.9h2.2V7.3z M52.9-1.4h-2.2v-4.3h2.2V-1.4z"/>
	<polygon id="Path_2_" class="st0" points="5.1,29 13.8,29 13.8,31.2 5.1,31.2 	"/>
	<polygon id="Path_3_" class="st0" points="-14.5,29 -5.8,29 -5.8,31.2 -14.5,31.2 	"/>
	<polygon id="Path_4_" class="st0" points="63.8,29 72.5,29 72.5,31.2 63.8,31.2 	"/>
	<polygon id="Path_5_" class="st0" points="44.2,29 52.9,29 52.9,31.2 44.2,31.2 	"/>
	<polygon id="Path_6_" class="st0" points="24.7,29 33.3,29 33.3,31.2 24.7,31.2 	"/>
</g>
</svg>
