<?xml version="1.0" encoding="UTF-8" standalone="no"?>
<svg
   xmlns:dc="http://purl.org/dc/elements/1.1/"
   xmlns:cc="http://creativecommons.org/ns#"
   xmlns:rdf="http://www.w3.org/1999/02/22-rdf-syntax-ns#"
   xmlns:svg="http://www.w3.org/2000/svg"
   xmlns="http://www.w3.org/2000/svg"
   xmlns:sodipodi="http://sodipodi.sourceforge.net/DTD/sodipodi-0.dtd"
   xmlns:inkscape="http://www.inkscape.org/namespaces/inkscape"
   width="22px"
   height="18px"
   viewBox="0 0 22 18"
   version="1.1"
   id="svg16"
   sodipodi:docname="stairs_white.svg"
   inkscape:version="1.0.1 (3bc2e813f5, 2020-09-07)">
  <metadata
     id="metadata20">
    <rdf:RDF>
      <cc:Work
         rdf:about="">
        <dc:format>image/svg+xml</dc:format>
        <dc:type
           rdf:resource="http://purl.org/dc/dcmitype/StillImage" />
      </cc:Work>
    </rdf:RDF>
  </metadata>
  <sodipodi:namedview
     pagecolor="#ffffff"
     bordercolor="#666666"
     borderopacity="1"
     objecttolerance="10"
     gridtolerance="10"
     guidetolerance="10"
     inkscape:pageopacity="0"
     inkscape:pageshadow="2"
     inkscape:window-width="1600"
     inkscape:window-height="878"
     id="namedview18"
     showgrid="false"
     inkscape:zoom="39.555556"
     inkscape:cx="11"
     inkscape:cy="9"
     inkscape:window-x="0"
     inkscape:window-y="22"
     inkscape:window-maximized="1"
     inkscape:current-layer="2.2.1-Map" />
  <title
     id="title2">Group 4</title>
  <defs
     id="defs7">
    <filter
       id="filter-1">
      <feColorMatrix
         in="SourceGraphic"
         type="matrix"
         values="0 0 0 0 0.058824 0 0 0 0 0.356863 0 0 0 0 0.411765 0 0 0 1.000000 0"
         id="feColorMatrix4" />
    </filter>
  </defs>
  <g
     id="Web"
     stroke="none"
     stroke-width="1"
     fill="none"
     fill-rule="evenodd">
    <g
       id="2.2.1-Map"
       transform="translate(-781.000000, -344.000000)">
      <path
         d="m 799.58222,352.27397 c 1.36823,0 2.50842,-1.11702 2.50842,-2.50842 0,-1.3914 -1.11702,-2.50843 -2.50842,-2.50843 h -2.82813 c -0.63869,0 -1.23104,0.22804 -1.71029,0.66095 l -2.48516,2.34994 c -0.0686,-0.66095 -0.43291,-1.23105 -0.95758,-1.59627 0.45608,-0.38748 0.77496,-0.95758 0.77496,-1.59627 0,-1.14019 -0.93532,-2.07552 -2.07551,-2.07552 -1.14019,0 -2.07552,0.93533 -2.07552,2.07552 0,0.63869 0.29664,1.20879 0.77497,1.59627 -0.59326,0.41065 -0.98075,1.09477 -0.98075,1.86973 v 3.96741 l -1.54906,1.43683 h -1.84748 c -1.36823,0 -2.50842,1.11702 -2.50842,2.50842 0,1.3914 1.11702,2.50843 2.50842,2.50843 h 2.85048 c 0.63869,0 1.23104,-0.22804 1.71029,-0.66095 l 8.55144,-8.02764 z m -10.46742,-5.19859 c 0,-0.66095 0.52467,-1.18562 1.18562,-1.18562 0.66094,0 1.18562,0.52467 1.18562,1.18562 0,0.66094 -0.52468,1.18562 -1.18562,1.18562 -0.6378,0 -1.18562,-0.54782 -1.18562,-1.18562 z m -0.20488,3.46595 c 0,-0.77496 0.63869,-1.39139 1.3914,-1.39139 0.77497,0 1.3914,0.63869 1.3914,1.39139 v 0.52468 l -2.78275,2.62244 z m 8.34575,0.98075 -8.68781,8.11772 c -0.29663,0.27346 -0.68411,0.4329 -1.09476,0.4329 l -2.85048,8.9e-4 c -0.88899,0 -1.61944,-0.72954 -1.61944,-1.61943 0,-0.88899 0.72954,-1.61944 1.61944,-1.61944 h 2.02917 c 0.11402,0 0.22804,-0.0454 0.29664,-0.11402 l 8.71084,-8.11863 c 0.29663,-0.27346 0.68411,-0.43291 1.09476,-0.43291 h 2.82723 c 0.88898,0 1.61943,0.72955 1.61943,1.61944 0,0.88899 -0.72954,1.61944 -1.61943,1.61944 h -2.02918 c -0.0909,0 -0.20488,0.0454 -0.29664,0.11402 z"
         id="Fill-1"
         stroke="#0f5b69"
         stroke-width="0.6"
         fill="#0f5b69"
         style="fill:#fffff8;fill-opacity:1;stroke:#ffffff;stroke-opacity:1;stroke-width:0.6;stroke-miterlimit:4;stroke-dasharray:none" />
    </g>
  </g>
</svg>
